<?xml version="1.0" encoding="utf-8"?>
<!-- Generator: Adobe Illustrator 16.0.3, SVG Export Plug-In . SVG Version: 6.00 Build 0)  -->
<!DOCTYPE svg PUBLIC "-//W3C//DTD SVG 1.1//EN" "http://www.w3.org/Graphics/SVG/1.1/DTD/svg11.dtd">
<svg version="1.1" id="Layer_1" xmlns:ev="http://www.w3.org/2001/xml-events"
	 xmlns="http://www.w3.org/2000/svg" xmlns:xlink="http://www.w3.org/1999/xlink" x="0px" y="0px" width="330px" height="420px"
	 viewBox="0 0 330 420" style="enable-background:new 0 0 330 420;" xml:space="preserve">
<style type="text/css">
<![CDATA[
	.st0{enable-background:new    ;}
	.st1{fill:none;stroke:#000000;stroke-width:4;stroke-linejoin:bevel;}
]]>
</style>
<path class="st1" d="M130,10h120v400H130V240h-10v-60h10V10z"/>
<g class="st0">
	<path d="M147.5,38h-1.8V26.8c-0.4,0.4-1,0.8-1.7,1.2s-1.3,0.7-1.9,0.9v-1.7c1-0.5,1.8-1,2.6-1.7s1.3-1.3,1.6-1.9h1.1V38z"/>
</g>
<circle cx="175" cy="30" r="8"/>
<g class="st0">
	<path d="M15.1,38L10,23.7h3.1l3.6,10.6l3.5-10.6h3.1L18.2,38H15.1z"/>
	<path d="M28,38V26.1h-4.2v-2.4h11.4v2.4h-4.2V38H28z"/>
	<path d="M38.5,38h-2.7V27.6h2.5v1.5c0.4-0.7,0.8-1.2,1.2-1.4s0.7-0.3,1.2-0.3c0.6,0,1.2,0.2,1.8,0.5l-0.8,2.4
		c-0.5-0.3-0.9-0.4-1.3-0.4c-0.4,0-0.7,0.1-1,0.3s-0.5,0.6-0.6,1.1s-0.2,1.7-0.2,3.5V38z"/>
	<path d="M49.7,34.7l2.7,0.5c-0.4,1-0.9,1.8-1.7,2.3s-1.7,0.8-2.8,0.8c-1.8,0-3.1-0.6-4-1.8c-0.7-0.9-1-2.1-1-3.6
		c0-1.7,0.4-3.1,1.3-4s2-1.5,3.4-1.5c1.5,0,2.8,0.5,3.7,1.5s1.3,2.6,1.3,4.7h-6.9c0,0.8,0.2,1.4,0.7,1.9s1,0.7,1.6,0.7
		c0.4,0,0.8-0.1,1.1-0.4S49.5,35.2,49.7,34.7z M49.8,31.9c0-0.8-0.2-1.4-0.6-1.8s-0.9-0.6-1.4-0.6c-0.6,0-1.1,0.2-1.5,0.7
		s-0.6,1-0.6,1.8H49.8z"/>
	<path d="M53.6,27.6h1.5v-0.8c0-0.9,0.1-1.5,0.3-2s0.5-0.8,1-1s1.1-0.4,1.9-0.4c0.8,0,1.5,0.1,2.3,0.4l-0.4,1.9
		c-0.4-0.1-0.9-0.2-1.3-0.2c-0.4,0-0.7,0.1-0.9,0.3s-0.3,0.5-0.3,1.1v0.7h2.1v2.2h-2.1V38h-2.7v-8.2h-1.5V27.6z"/>
</g>
<g class="st0">
	<path d="M230.1,36.3V38h-9.5c0-0.4,0.1-0.8,0.2-1.2c0.2-0.6,0.6-1.3,1.2-1.9s1.3-1.3,2.3-2.2c1.6-1.3,2.6-2.3,3.2-3
		s0.8-1.5,0.8-2.1c0-0.7-0.2-1.3-0.7-1.8s-1.1-0.7-1.9-0.7c-0.8,0-1.5,0.3-2,0.8s-0.8,1.2-0.8,2.1l-1.8-0.2c0.1-1.3,0.6-2.4,1.4-3.1
		s1.9-1.1,3.3-1.1c1.4,0,2.5,0.4,3.3,1.1s1.2,1.7,1.2,2.8c0,0.6-0.1,1.1-0.4,1.7s-0.6,1.1-1.2,1.7s-1.4,1.5-2.7,2.5
		c-1.1,0.9-1.7,1.5-2,1.8s-0.5,0.6-0.7,1H230.1z"/>
</g>
<circle cx="205" cy="30" r="8"/>
<g class="st0">
	<path d="M261.5,38V23.7h2.8l5.9,9.6v-9.6h2.7V38h-2.9l-5.8-9.3V38H261.5z"/>
	<path d="M285.1,32.7l2.8,0.9c-0.4,1.6-1.1,2.7-2.1,3.5s-2.3,1.1-3.8,1.1c-1.9,0-3.5-0.6-4.7-1.9s-1.8-3.1-1.8-5.3
		c0-2.4,0.6-4.2,1.8-5.6s2.8-2,4.9-2c1.8,0,3.2,0.5,4.3,1.6c0.7,0.6,1.1,1.5,1.5,2.6l-2.9,0.7c-0.2-0.7-0.5-1.3-1.1-1.8
		s-1.2-0.6-2-0.6c-1.1,0-1.9,0.4-2.6,1.1s-1,2-1,3.7c0,1.8,0.3,3.1,1,3.9s1.5,1.2,2.5,1.2c0.8,0,1.4-0.2,2-0.7
		S284.8,33.8,285.1,32.7z"/>
</g>
<g class="st0">
	<path d="M140.8,74.2l1.8-0.2c0.2,1,0.5,1.7,1,2.2s1.1,0.7,1.8,0.7c0.8,0,1.5-0.3,2.1-0.9s0.9-1.3,0.9-2.1c0-0.8-0.3-1.5-0.8-2
		s-1.2-0.8-2-0.8c-0.3,0-0.7,0.1-1.2,0.2l0.2-1.5c0.1,0,0.2,0,0.3,0c0.7,0,1.4-0.2,2-0.6s0.9-1,0.9-1.8c0-0.6-0.2-1.2-0.7-1.6
		s-1-0.6-1.7-0.6c-0.7,0-1.3,0.2-1.7,0.6s-0.7,1.1-0.9,1.9l-1.8-0.3c0.2-1.2,0.7-2.1,1.5-2.7s1.7-1,2.8-1c0.8,0,1.5,0.2,2.2,0.5
		s1.2,0.8,1.5,1.4s0.5,1.2,0.5,1.8c0,0.6-0.2,1.2-0.5,1.7s-0.8,0.9-1.5,1.2c0.8,0.2,1.5,0.6,2,1.2s0.7,1.4,0.7,2.3
		c0,1.3-0.5,2.3-1.4,3.2s-2.1,1.3-3.5,1.3c-1.3,0-2.3-0.4-3.1-1.1S141,75.4,140.8,74.2z"/>
</g>
<circle cx="175" cy="70" r="8"/>
<g class="st0">
	<path d="M20.9,78h-2.7v-5.3c0-1.1-0.1-1.8-0.2-2.2s-0.3-0.6-0.6-0.8s-0.6-0.3-1-0.3c-0.5,0-0.9,0.1-1.3,0.4s-0.6,0.6-0.8,1
		s-0.2,1.2-0.2,2.4V78h-2.7V67.6H14v1.5c0.9-1.2,2-1.8,3.4-1.8c0.6,0,1.2,0.1,1.7,0.3s0.9,0.5,1.1,0.8s0.4,0.7,0.5,1.2
		s0.2,1,0.2,1.8V78z"/>
	<path d="M26.9,78V66.1h-4.2v-2.4H34v2.4h-4.2V78H26.9z"/>
	<path d="M35.9,78V63.7H42c1.5,0,2.6,0.1,3.3,0.4s1.2,0.7,1.7,1.4s0.6,1.4,0.6,2.3c0,1.1-0.3,2-0.9,2.7s-1.6,1.1-2.8,1.3
		c0.6,0.4,1.1,0.8,1.5,1.2s1,1.2,1.6,2.3l1.7,2.8h-3.5l-2.1-3.1c-0.7-1.1-1.3-1.8-1.5-2.1s-0.6-0.5-0.9-0.6S40,72,39.4,72h-0.6v6
		H35.9z M38.8,69.7h2.1c1.4,0,2.3-0.1,2.6-0.2s0.6-0.3,0.8-0.6s0.3-0.6,0.3-1.1c0-0.5-0.1-0.9-0.4-1.2s-0.6-0.5-1.1-0.6
		c-0.2,0-0.9,0-2.1,0h-2.3V69.7z"/>
	<path d="M49.6,73.3l2.8-0.3c0.2,0.9,0.5,1.6,1,2.1s1.2,0.7,2.1,0.7c0.9,0,1.6-0.2,2.1-0.6s0.7-0.9,0.7-1.4c0-0.3-0.1-0.6-0.3-0.9
		s-0.5-0.4-1-0.6c-0.3-0.1-1.1-0.3-2.3-0.6c-1.5-0.4-2.6-0.9-3.3-1.4c-0.9-0.8-1.3-1.7-1.3-2.9c0-0.7,0.2-1.4,0.6-2s1-1.1,1.8-1.5
		s1.7-0.5,2.8-0.5c1.8,0,3.1,0.4,4.1,1.2s1.4,1.8,1.4,3.2l-2.9,0.1c-0.1-0.7-0.4-1.3-0.8-1.6s-1-0.5-1.8-0.5c-0.8,0-1.5,0.2-2,0.5
		c-0.3,0.2-0.5,0.5-0.5,0.9c0,0.3,0.1,0.6,0.4,0.9c0.4,0.3,1.3,0.6,2.7,1s2.4,0.7,3.1,1s1.2,0.8,1.6,1.5s0.6,1.4,0.6,2.3
		c0,0.8-0.2,1.6-0.7,2.3s-1.1,1.2-1.9,1.6s-1.9,0.5-3.1,0.5c-1.8,0-3.2-0.4-4.2-1.3S49.8,74.9,49.6,73.3z"/>
	<path d="M66.9,78V66.1h-4.2v-2.4H74v2.4h-4.2V78H66.9z"/>
</g>
<g class="st0">
	<path d="M226.5,78v-3.4h-6.2V73l6.5-9.3h1.4V73h1.9v1.6h-1.9V78H226.5z M226.5,73v-6.5L222,73H226.5z"/>
</g>
<circle cx="205" cy="70" r="8"/>
<g class="st0">
	<path d="M268.1,72.7v-2.4h6.2V76c-0.6,0.6-1.5,1.1-2.6,1.5s-2.3,0.7-3.5,0.7c-1.5,0-2.8-0.3-3.9-0.9s-1.9-1.5-2.5-2.7
		s-0.8-2.4-0.8-3.8c0-1.5,0.3-2.8,0.9-4s1.5-2,2.7-2.7c0.9-0.5,2.1-0.7,3.4-0.7c1.8,0,3.2,0.4,4.2,1.1s1.6,1.8,1.9,3.1l-2.9,0.5
		c-0.2-0.7-0.6-1.3-1.1-1.7s-1.3-0.6-2.1-0.6c-1.3,0-2.3,0.4-3,1.2s-1.1,2-1.1,3.6c0,1.7,0.4,3,1.1,3.8s1.7,1.3,3,1.3
		c0.6,0,1.2-0.1,1.8-0.4s1.1-0.5,1.6-0.9v-1.8H268.1z"/>
	<path d="M277,78V63.7h2.8l5.9,9.6v-9.6h2.7V78h-2.9l-5.8-9.3V78H277z"/>
	<path d="M291.4,63.7h5.3c1.2,0,2.1,0.1,2.7,0.3c0.8,0.2,1.6,0.7,2.2,1.3s1.1,1.4,1.4,2.3s0.5,2,0.5,3.4c0,1.2-0.1,2.2-0.4,3
		c-0.4,1-0.9,1.9-1.5,2.5c-0.5,0.5-1.2,0.9-2,1.1c-0.6,0.2-1.5,0.3-2.6,0.3h-5.4V63.7z M294.3,66.1v9.5h2.2c0.8,0,1.4,0,1.7-0.1
		c0.5-0.1,0.9-0.3,1.2-0.6s0.6-0.7,0.8-1.4s0.3-1.5,0.3-2.6s-0.1-2-0.3-2.5s-0.5-1.1-0.8-1.4s-0.8-0.6-1.3-0.7
		c-0.4-0.1-1.2-0.1-2.4-0.1H294.3z"/>
</g>
<g class="st0">
	<path d="M140.8,114.3l1.8-0.2c0.1,0.9,0.5,1.6,1,2s1.1,0.7,1.8,0.7c0.8,0,1.6-0.3,2.1-1s0.9-1.5,0.9-2.5c0-1-0.3-1.8-0.8-2.4
		s-1.3-0.9-2.2-0.9c-0.6,0-1.1,0.1-1.5,0.4s-0.8,0.6-1.1,1l-1.7-0.2l1.4-7.4h7.1v1.7h-5.7l-0.8,3.8c0.9-0.6,1.8-0.9,2.7-0.9
		c1.3,0,2.3,0.4,3.2,1.3s1.3,2,1.3,3.3c0,1.3-0.4,2.4-1.1,3.4c-0.9,1.2-2.2,1.7-3.8,1.7c-1.3,0-2.4-0.4-3.2-1.1
		S140.9,115.5,140.8,114.3z"/>
</g>
<circle cx="175" cy="110" r="8"/>
<g class="st0">
	<path d="M14.7,118v-11.9h-4.2v-2.4h11.4v2.4h-4.2V118H14.7z"/>
	<path d="M23.7,103.7h5.3c1.2,0,2.1,0.1,2.7,0.3c0.8,0.2,1.6,0.7,2.2,1.3s1.1,1.4,1.4,2.3s0.5,2,0.5,3.4c0,1.2-0.1,2.2-0.4,3
		c-0.4,1-0.9,1.9-1.5,2.5c-0.5,0.5-1.2,0.9-2,1.1c-0.6,0.2-1.5,0.3-2.6,0.3h-5.4V103.7z M26.6,106.1v9.5h2.2c0.8,0,1.4,0,1.7-0.1
		c0.5-0.1,0.9-0.3,1.2-0.6s0.6-0.7,0.8-1.4s0.3-1.5,0.3-2.6s-0.1-2-0.3-2.5s-0.5-1.1-0.8-1.4s-0.8-0.6-1.3-0.7
		c-0.4-0.1-1.2-0.1-2.4-0.1H26.6z"/>
	<path d="M38,118v-14.3h2.9V118H38z"/>
</g>
<g class="st0">
	<path d="M230,107.2l-1.7,0.1c-0.2-0.7-0.4-1.2-0.7-1.5c-0.5-0.5-1.1-0.8-1.8-0.8c-0.6,0-1.1,0.2-1.5,0.5c-0.6,0.4-1,1-1.3,1.8
		s-0.5,1.9-0.5,3.3c0.4-0.6,0.9-1.1,1.6-1.4s1.3-0.5,1.9-0.5c1.2,0,2.2,0.4,3,1.3s1.2,2,1.2,3.3c0,0.9-0.2,1.7-0.6,2.5
		s-0.9,1.4-1.6,1.8s-1.4,0.6-2.3,0.6c-1.5,0-2.7-0.5-3.6-1.6s-1.4-2.9-1.4-5.3c0-2.8,0.5-4.8,1.5-6c0.9-1.1,2.1-1.6,3.6-1.6
		c1.1,0,2,0.3,2.8,0.9S229.8,106.1,230,107.2z M222.8,113.4c0,0.6,0.1,1.2,0.4,1.7s0.6,1,1.1,1.3s0.9,0.4,1.5,0.4
		c0.7,0,1.4-0.3,1.9-0.9s0.8-1.4,0.8-2.4c0-1-0.3-1.8-0.8-2.3s-1.2-0.9-2-0.9c-0.8,0-1.5,0.3-2,0.9S222.8,112.4,222.8,113.4z"/>
</g>
<circle cx="205" cy="110" r="8"/>
<g class="st0">
	<path d="M268.1,112.7v-2.4h6.2v5.7c-0.6,0.6-1.5,1.1-2.6,1.5s-2.3,0.7-3.5,0.7c-1.5,0-2.8-0.3-3.9-0.9s-1.9-1.5-2.5-2.7
		s-0.8-2.4-0.8-3.8c0-1.5,0.3-2.8,0.9-4s1.5-2,2.7-2.7c0.9-0.5,2.1-0.7,3.4-0.7c1.8,0,3.2,0.4,4.2,1.1s1.6,1.8,1.9,3.1l-2.9,0.5
		c-0.2-0.7-0.6-1.3-1.1-1.7s-1.3-0.6-2.1-0.6c-1.3,0-2.3,0.4-3,1.2s-1.1,2-1.1,3.6c0,1.7,0.4,3,1.1,3.8s1.7,1.3,3,1.3
		c0.6,0,1.2-0.1,1.8-0.4s1.1-0.5,1.6-0.9v-1.8H268.1z"/>
	<path d="M277,118v-14.3h2.8l5.9,9.6v-9.6h2.7V118h-2.9l-5.8-9.3v9.3H277z"/>
	<path d="M291.4,103.7h5.3c1.2,0,2.1,0.1,2.7,0.3c0.8,0.2,1.6,0.7,2.2,1.3s1.1,1.4,1.4,2.3s0.5,2,0.5,3.4c0,1.2-0.1,2.2-0.4,3
		c-0.4,1-0.9,1.9-1.5,2.5c-0.5,0.5-1.2,0.9-2,1.1c-0.6,0.2-1.5,0.3-2.6,0.3h-5.4V103.7z M294.3,106.1v9.5h2.2c0.8,0,1.4,0,1.7-0.1
		c0.5-0.1,0.9-0.3,1.2-0.6s0.6-0.7,0.8-1.4s0.3-1.5,0.3-2.6s-0.1-2-0.3-2.5s-0.5-1.1-0.8-1.4s-0.8-0.6-1.3-0.7
		c-0.4-0.1-1.2-0.1-2.4-0.1H294.3z"/>
</g>
<g class="st0">
	<path d="M140.9,145.6v-1.7h9.3v1.4c-0.9,1-1.8,2.3-2.7,3.9s-1.6,3.3-2.1,5c-0.4,1.2-0.6,2.5-0.7,3.9h-1.8c0-1.1,0.2-2.5,0.7-4.1
		s1-3.1,1.8-4.6s1.6-2.7,2.5-3.7H140.9z"/>
</g>
<circle cx="175" cy="150" r="8"/>
<g class="st0">
	<path d="M14.7,158v-11.9h-4.2v-2.4h11.4v2.4h-4.2V158H14.7z"/>
	<path d="M23.6,158v-14.3H28l2.6,9.8l2.6-9.8h4.3V158h-2.7v-11.3L31.9,158h-2.8l-2.8-11.3V158H23.6z"/>
	<path d="M39.6,153.3l2.8-0.3c0.2,0.9,0.5,1.6,1,2.1s1.2,0.7,2.1,0.7c0.9,0,1.6-0.2,2.1-0.6s0.7-0.9,0.7-1.4c0-0.3-0.1-0.6-0.3-0.9
		s-0.5-0.4-1-0.6c-0.3-0.1-1.1-0.3-2.3-0.6c-1.5-0.4-2.6-0.9-3.3-1.4c-0.9-0.8-1.3-1.7-1.3-2.9c0-0.7,0.2-1.4,0.6-2s1-1.1,1.8-1.5
		s1.7-0.5,2.8-0.5c1.8,0,3.1,0.4,4.1,1.2s1.4,1.8,1.4,3.2l-2.9,0.1c-0.1-0.7-0.4-1.3-0.8-1.6s-1-0.5-1.8-0.5c-0.8,0-1.5,0.2-2,0.5
		c-0.3,0.2-0.5,0.5-0.5,0.9c0,0.3,0.1,0.6,0.4,0.9c0.4,0.3,1.3,0.6,2.7,1s2.4,0.7,3.1,1s1.2,0.8,1.6,1.5s0.6,1.4,0.6,2.3
		c0,0.8-0.2,1.6-0.7,2.3s-1.1,1.2-1.9,1.6s-1.9,0.5-3.1,0.5c-1.8,0-3.2-0.4-4.2-1.3S39.8,154.9,39.6,153.3z"/>
</g>
<g class="st0">
	<path d="M223.5,150.2c-0.7-0.3-1.3-0.6-1.6-1.1s-0.5-1.1-0.5-1.8c0-1,0.4-1.9,1.1-2.6s1.7-1.1,3-1.1c1.3,0,2.3,0.4,3,1.1
		s1.1,1.6,1.1,2.7c0,0.7-0.2,1.2-0.5,1.7s-0.9,0.9-1.6,1.1c0.9,0.3,1.5,0.7,2,1.4s0.7,1.4,0.7,2.3c0,1.2-0.4,2.3-1.3,3.1
		s-2,1.3-3.4,1.3s-2.6-0.4-3.4-1.3s-1.3-1.9-1.3-3.1c0-0.9,0.2-1.7,0.7-2.3S222.7,150.5,223.5,150.2z M222.6,153.9
		c0,0.5,0.1,1,0.4,1.5s0.6,0.8,1.1,1.1s1,0.4,1.5,0.4c0.8,0,1.5-0.3,2.1-0.8s0.8-1.2,0.8-2.1c0-0.8-0.3-1.5-0.8-2.1
		s-1.3-0.8-2.1-0.8c-0.8,0-1.5,0.3-2.1,0.8S222.6,153,222.6,153.9z M223.2,147.3c0,0.7,0.2,1.2,0.7,1.7s1,0.6,1.7,0.6
		c0.7,0,1.2-0.2,1.7-0.6s0.6-0.9,0.6-1.6c0-0.6-0.2-1.2-0.7-1.6s-1-0.7-1.7-0.7c-0.7,0-1.2,0.2-1.7,0.6S223.2,146.7,223.2,147.3z"/>
</g>
<circle cx="205" cy="150" r="8"/>
<g class="st0">
	<path d="M268.1,152.7v-2.4h6.2v5.7c-0.6,0.6-1.5,1.1-2.6,1.5s-2.3,0.7-3.5,0.7c-1.5,0-2.8-0.3-3.9-0.9s-1.9-1.5-2.5-2.7
		s-0.8-2.4-0.8-3.8c0-1.5,0.3-2.8,0.9-4s1.5-2,2.7-2.7c0.9-0.5,2.1-0.7,3.4-0.7c1.8,0,3.2,0.4,4.2,1.1s1.6,1.8,1.9,3.1l-2.9,0.5
		c-0.2-0.7-0.6-1.3-1.1-1.7s-1.3-0.6-2.1-0.6c-1.3,0-2.3,0.4-3,1.2s-1.1,2-1.1,3.6c0,1.7,0.4,3,1.1,3.8s1.7,1.3,3,1.3
		c0.6,0,1.2-0.1,1.8-0.4s1.1-0.5,1.6-0.9v-1.8H268.1z"/>
	<path d="M277,158v-14.3h2.8l5.9,9.6v-9.6h2.7V158h-2.9l-5.8-9.3v9.3H277z"/>
	<path d="M291.4,143.7h5.3c1.2,0,2.1,0.1,2.7,0.3c0.8,0.2,1.6,0.7,2.2,1.3s1.1,1.4,1.4,2.3s0.5,2,0.5,3.4c0,1.2-0.1,2.2-0.4,3
		c-0.4,1-0.9,1.9-1.5,2.5c-0.5,0.5-1.2,0.9-2,1.1c-0.6,0.2-1.5,0.3-2.6,0.3h-5.4V143.7z M294.3,146.1v9.5h2.2c0.8,0,1.4,0,1.7-0.1
		c0.5-0.1,0.9-0.3,1.2-0.6s0.6-0.7,0.8-1.4s0.3-1.5,0.3-2.6s-0.1-2-0.3-2.5s-0.5-1.1-0.8-1.4s-0.8-0.6-1.3-0.7
		c-0.4-0.1-1.2-0.1-2.4-0.1H294.3z"/>
</g>
<g class="st0">
	<path d="M141.1,194.7l1.7-0.2c0.1,0.8,0.4,1.4,0.8,1.7s0.9,0.5,1.6,0.5c0.5,0,1-0.1,1.4-0.4s0.7-0.6,1-1s0.5-1,0.7-1.7
		s0.3-1.4,0.3-2.1c0-0.1,0-0.2,0-0.4c-0.4,0.6-0.8,1-1.4,1.4s-1.3,0.5-2,0.5c-1.2,0-2.2-0.4-3-1.3s-1.2-2-1.2-3.4
		c0-1.5,0.4-2.6,1.3-3.5s1.9-1.3,3.2-1.3c0.9,0,1.8,0.3,2.6,0.8s1.4,1.2,1.8,2.1s0.6,2.3,0.6,4c0,1.8-0.2,3.3-0.6,4.4
		s-1,1.9-1.8,2.5s-1.7,0.8-2.8,0.8c-1.1,0-2-0.3-2.7-0.9S141.2,195.8,141.1,194.7z M148.3,188.4c0-1-0.3-1.8-0.8-2.4
		s-1.2-0.9-1.9-0.9c-0.8,0-1.5,0.3-2,1s-0.9,1.5-0.9,2.5c0,0.9,0.3,1.7,0.8,2.2s1.2,0.9,2,0.9c0.8,0,1.5-0.3,2-0.9
		S148.3,189.4,148.3,188.4z"/>
</g>
<circle cx="175" cy="190" r="8"/>
<g class="st0">
	<path d="M14.7,198v-11.9h-4.2v-2.4h11.4v2.4h-4.2V198H14.7z"/>
	<path d="M32.8,192.7l2.8,0.9c-0.4,1.6-1.1,2.7-2.1,3.5s-2.3,1.1-3.8,1.1c-1.9,0-3.5-0.6-4.7-1.9s-1.8-3.1-1.8-5.3
		c0-2.4,0.6-4.2,1.8-5.6s2.8-2,4.9-2c1.8,0,3.2,0.5,4.3,1.6c0.7,0.6,1.1,1.5,1.5,2.6l-2.9,0.7c-0.2-0.7-0.5-1.3-1.1-1.8
		s-1.2-0.6-2-0.6c-1.1,0-1.9,0.4-2.6,1.1s-1,2-1,3.7c0,1.8,0.3,3.1,1,3.9s1.5,1.2,2.5,1.2c0.8,0,1.4-0.2,2-0.7
		S32.6,193.8,32.8,192.7z"/>
	<path d="M38.2,198v-14.3H41v6.4l5.8-6.4h3.9l-5.4,5.6l5.7,8.7h-3.7l-3.9-6.7l-2.3,2.4v4.3H38.2z"/>
</g>
<g class="st0">
	<path d="M227.5,198h-1.8v-11.2c-0.4,0.4-1,0.8-1.7,1.2s-1.3,0.7-1.9,0.9v-1.7c1-0.5,1.8-1,2.6-1.7s1.3-1.3,1.6-1.9h1.1V198z"/>
	<path d="M232,190.9c0-1.7,0.2-3.1,0.5-4.1s0.9-1.8,1.6-2.4s1.6-0.8,2.6-0.8c0.8,0,1.4,0.2,2,0.5s1.1,0.8,1.4,1.3s0.7,1.3,0.9,2.1
		s0.3,2,0.3,3.4c0,1.7-0.2,3-0.5,4.1s-0.9,1.8-1.5,2.4s-1.6,0.8-2.6,0.8c-1.4,0-2.5-0.5-3.3-1.5C232.4,195.6,232,193.6,232,190.9z
		 M233.8,190.9c0,2.4,0.3,3.9,0.8,4.7s1.2,1.2,2,1.2s1.5-0.4,2-1.2s0.8-2.3,0.8-4.7c0-2.4-0.3-3.9-0.8-4.7s-1.2-1.2-2.1-1.2
		c-0.8,0-1.5,0.3-1.9,1C234.1,187,233.8,188.6,233.8,190.9z"/>
</g>
<circle cx="205" cy="190" r="8"/>
<g class="st0">
	<path d="M268.1,192.7v-2.4h6.2v5.7c-0.6,0.6-1.5,1.1-2.6,1.5s-2.3,0.7-3.5,0.7c-1.5,0-2.8-0.3-3.9-0.9s-1.9-1.5-2.5-2.7
		s-0.8-2.4-0.8-3.8c0-1.5,0.3-2.8,0.9-4s1.5-2,2.7-2.7c0.9-0.5,2.1-0.7,3.4-0.7c1.8,0,3.2,0.4,4.2,1.1s1.6,1.8,1.9,3.1l-2.9,0.5
		c-0.2-0.7-0.6-1.3-1.1-1.7s-1.3-0.6-2.1-0.6c-1.3,0-2.3,0.4-3,1.2s-1.1,2-1.1,3.6c0,1.7,0.4,3,1.1,3.8s1.7,1.3,3,1.3
		c0.6,0,1.2-0.1,1.8-0.4s1.1-0.5,1.6-0.9v-1.8H268.1z"/>
	<path d="M277,198v-14.3h2.8l5.9,9.6v-9.6h2.7V198h-2.9l-5.8-9.3v9.3H277z"/>
	<path d="M291.4,183.7h5.3c1.2,0,2.1,0.1,2.7,0.3c0.8,0.2,1.6,0.7,2.2,1.3s1.1,1.4,1.4,2.3s0.5,2,0.5,3.4c0,1.2-0.1,2.2-0.4,3
		c-0.4,1-0.9,1.9-1.5,2.5c-0.5,0.5-1.2,0.9-2,1.1c-0.6,0.2-1.5,0.3-2.6,0.3h-5.4V183.7z M294.3,186.1v9.5h2.2c0.8,0,1.4,0,1.7-0.1
		c0.5-0.1,0.9-0.3,1.2-0.6s0.6-0.7,0.8-1.4s0.3-1.5,0.3-2.6s-0.1-2-0.3-2.5s-0.5-1.1-0.8-1.4s-0.8-0.6-1.3-0.7
		c-0.4-0.1-1.2-0.1-2.4-0.1H294.3z"/>
</g>
<g class="st0">
	<path d="M147.5,238h-1.8v-11.2c-0.4,0.4-1,0.8-1.7,1.2s-1.3,0.7-1.9,0.9v-1.7c1-0.5,1.8-1,2.6-1.7s1.3-1.3,1.6-1.9h1.1V238z"/>
	<path d="M157.1,238h-1.8v-11.2c-0.4,0.4-1,0.8-1.7,1.2s-1.3,0.7-1.9,0.9v-1.7c1-0.5,1.8-1,2.6-1.7s1.3-1.3,1.6-1.9h1.1V238z"/>
</g>
<circle cx="175" cy="230" r="8"/>
<g class="st0">
	<path d="M11.5,238v-14.3h6.1c1.5,0,2.6,0.1,3.3,0.4s1.2,0.7,1.7,1.4s0.6,1.4,0.6,2.3c0,1.1-0.3,2-0.9,2.7s-1.6,1.1-2.8,1.3
		c0.6,0.4,1.1,0.8,1.5,1.2s1,1.2,1.6,2.3l1.7,2.8h-3.5l-2.1-3.1c-0.7-1.1-1.3-1.8-1.5-2.1s-0.6-0.5-0.9-0.6s-0.8-0.2-1.5-0.2h-0.6v6
		H11.5z M14.4,229.7h2.1c1.4,0,2.3-0.1,2.6-0.2s0.6-0.3,0.8-0.6s0.3-0.6,0.3-1.1c0-0.5-0.1-0.9-0.4-1.2s-0.6-0.5-1.1-0.6
		c-0.2,0-0.9,0-2.1,0h-2.3V229.7z"/>
	<path d="M29.1,238v-11.9h-4.2v-2.4h11.4v2.4H32V238H29.1z"/>
	<path d="M47.3,232.7l2.8,0.9c-0.4,1.6-1.1,2.7-2.1,3.5s-2.3,1.1-3.8,1.1c-1.9,0-3.5-0.6-4.7-1.9s-1.8-3.1-1.8-5.3
		c0-2.4,0.6-4.2,1.8-5.6s2.8-2,4.9-2c1.8,0,3.2,0.5,4.3,1.6c0.7,0.6,1.1,1.5,1.5,2.6l-2.9,0.7c-0.2-0.7-0.5-1.3-1.1-1.8
		s-1.2-0.6-2-0.6c-1.1,0-1.9,0.4-2.6,1.1s-1,2-1,3.7c0,1.8,0.3,3.1,1,3.9s1.5,1.2,2.5,1.2c0.8,0,1.4-0.2,2-0.7S47,233.8,47.3,232.7z
		"/>
	<path d="M52.6,238v-14.3h2.9v6.4l5.8-6.4h3.9l-5.4,5.6l5.7,8.7h-3.7l-3.9-6.7l-2.3,2.4v4.3H52.6z"/>
</g>
<g class="st0">
	<path d="M227.5,238h-1.8v-11.2c-0.4,0.4-1,0.8-1.7,1.2s-1.3,0.7-1.9,0.9v-1.7c1-0.5,1.8-1,2.6-1.7s1.3-1.3,1.6-1.9h1.1V238z"/>
	<path d="M241.2,236.3v1.7h-9.5c0-0.4,0.1-0.8,0.2-1.2c0.2-0.6,0.6-1.3,1.2-1.9s1.3-1.3,2.3-2.2c1.6-1.3,2.6-2.3,3.2-3
		s0.8-1.5,0.8-2.1c0-0.7-0.2-1.3-0.7-1.8s-1.1-0.7-1.9-0.7c-0.8,0-1.5,0.3-2,0.8s-0.8,1.2-0.8,2.1l-1.8-0.2c0.1-1.3,0.6-2.4,1.4-3.1
		s1.9-1.1,3.3-1.1c1.4,0,2.5,0.4,3.3,1.1s1.2,1.7,1.2,2.8c0,0.6-0.1,1.1-0.4,1.7s-0.6,1.1-1.2,1.7s-1.4,1.5-2.7,2.5
		c-1.1,0.9-1.7,1.5-2,1.8s-0.5,0.6-0.7,1H241.2z"/>
</g>
<circle cx="205" cy="230" r="8"/>
<g class="st0">
	<path d="M268.1,232.7v-2.4h6.2v5.7c-0.6,0.6-1.5,1.1-2.6,1.5s-2.3,0.7-3.5,0.7c-1.5,0-2.8-0.3-3.9-0.9s-1.9-1.5-2.5-2.7
		s-0.8-2.4-0.8-3.8c0-1.5,0.3-2.8,0.9-4s1.5-2,2.7-2.7c0.9-0.5,2.1-0.7,3.4-0.7c1.8,0,3.2,0.4,4.2,1.1s1.6,1.8,1.9,3.1l-2.9,0.5
		c-0.2-0.7-0.6-1.3-1.1-1.7s-1.3-0.6-2.1-0.6c-1.3,0-2.3,0.4-3,1.2s-1.1,2-1.1,3.6c0,1.7,0.4,3,1.1,3.8s1.7,1.3,3,1.3
		c0.6,0,1.2-0.1,1.8-0.4s1.1-0.5,1.6-0.9v-1.8H268.1z"/>
	<path d="M277,238v-14.3h2.8l5.9,9.6v-9.6h2.7V238h-2.9l-5.8-9.3v9.3H277z"/>
	<path d="M291.4,223.7h5.3c1.2,0,2.1,0.1,2.7,0.3c0.8,0.2,1.6,0.7,2.2,1.3s1.1,1.4,1.4,2.3s0.5,2,0.5,3.4c0,1.2-0.1,2.2-0.4,3
		c-0.4,1-0.9,1.9-1.5,2.5c-0.5,0.5-1.2,0.9-2,1.1c-0.6,0.2-1.5,0.3-2.6,0.3h-5.4V223.7z M294.3,226.1v9.5h2.2c0.8,0,1.4,0,1.7-0.1
		c0.5-0.1,0.9-0.3,1.2-0.6s0.6-0.7,0.8-1.4s0.3-1.5,0.3-2.6s-0.1-2-0.3-2.5s-0.5-1.1-0.8-1.4s-0.8-0.6-1.3-0.7
		c-0.4-0.1-1.2-0.1-2.4-0.1H294.3z"/>
</g>
<g class="st0">
	<path d="M147.5,278h-1.8v-11.2c-0.4,0.4-1,0.8-1.7,1.2s-1.3,0.7-1.9,0.9v-1.7c1-0.5,1.8-1,2.6-1.7s1.3-1.3,1.6-1.9h1.1V278z"/>
	<path d="M152,274.2l1.8-0.2c0.2,1,0.5,1.7,1,2.2s1.1,0.7,1.8,0.7c0.8,0,1.5-0.3,2.1-0.9s0.9-1.3,0.9-2.1c0-0.8-0.3-1.5-0.8-2
		s-1.2-0.8-2-0.8c-0.3,0-0.7,0.1-1.2,0.2l0.2-1.5c0.1,0,0.2,0,0.3,0c0.7,0,1.4-0.2,2-0.6s0.9-1,0.9-1.8c0-0.6-0.2-1.2-0.7-1.6
		s-1-0.6-1.7-0.6c-0.7,0-1.3,0.2-1.7,0.6s-0.7,1.1-0.9,1.9l-1.8-0.3c0.2-1.2,0.7-2.1,1.5-2.7s1.7-1,2.8-1c0.8,0,1.5,0.2,2.2,0.5
		s1.2,0.8,1.5,1.4s0.5,1.2,0.5,1.8c0,0.6-0.2,1.2-0.5,1.7s-0.8,0.9-1.5,1.2c0.8,0.2,1.5,0.6,2,1.2s0.7,1.4,0.7,2.3
		c0,1.3-0.5,2.3-1.4,3.2s-2.1,1.3-3.5,1.3c-1.3,0-2.3-0.4-3.1-1.1S152.1,275.4,152,274.2z"/>
</g>
<circle cx="175" cy="270" r="8"/>
<g class="st0">
	<path d="M14.7,278v-11.9h-4.2v-2.4h11.4v2.4h-4.2V278H14.7z"/>
	<path d="M23.7,263.7h5.3c1.2,0,2.1,0.1,2.7,0.3c0.8,0.2,1.6,0.7,2.2,1.3s1.1,1.4,1.4,2.3s0.5,2,0.5,3.4c0,1.2-0.1,2.2-0.4,3
		c-0.4,1-0.9,1.9-1.5,2.5c-0.5,0.5-1.2,0.9-2,1.1c-0.6,0.2-1.5,0.3-2.6,0.3h-5.4V263.7z M26.6,266.1v9.5h2.2c0.8,0,1.4,0,1.7-0.1
		c0.5-0.1,0.9-0.3,1.2-0.6s0.6-0.7,0.8-1.4s0.3-1.5,0.3-2.6s-0.1-2-0.3-2.5s-0.5-1.1-0.8-1.4s-0.8-0.6-1.3-0.7
		c-0.4-0.1-1.2-0.1-2.4-0.1H26.6z"/>
	<path d="M37.5,270.9c0-1.5,0.2-2.7,0.7-3.7c0.3-0.7,0.8-1.4,1.3-2s1.2-1,1.9-1.3c0.9-0.4,1.9-0.6,3.1-0.6c2.1,0,3.8,0.7,5.1,2
		s1.9,3.1,1.9,5.5c0,2.3-0.6,4.1-1.9,5.4s-2.9,2-5,2c-2.1,0-3.8-0.6-5.1-1.9S37.5,273.2,37.5,270.9z M40.5,270.8
		c0,1.6,0.4,2.8,1.1,3.7s1.7,1.3,2.9,1.3s2.1-0.4,2.8-1.2s1.1-2.1,1.1-3.7c0-1.6-0.4-2.9-1.1-3.7s-1.7-1.2-2.9-1.2s-2.2,0.4-2.9,1.2
		S40.5,269.2,40.5,270.8z"/>
</g>
<g class="st0">
	<path d="M227.5,278h-1.8v-11.2c-0.4,0.4-1,0.8-1.7,1.2s-1.3,0.7-1.9,0.9v-1.7c1-0.5,1.8-1,2.6-1.7s1.3-1.3,1.6-1.9h1.1V278z"/>
	<path d="M237.6,278v-3.4h-6.2V273l6.5-9.3h1.4v9.3h1.9v1.6h-1.9v3.4H237.6z M237.6,273v-6.5l-4.5,6.5H237.6z"/>
</g>
<circle cx="205" cy="270" r="8"/>
<g class="st0">
	<path d="M268.1,272.7v-2.4h6.2v5.7c-0.6,0.6-1.5,1.1-2.6,1.5s-2.3,0.7-3.5,0.7c-1.5,0-2.8-0.3-3.9-0.9s-1.9-1.5-2.5-2.7
		s-0.8-2.4-0.8-3.8c0-1.5,0.3-2.8,0.9-4s1.5-2,2.7-2.7c0.9-0.5,2.1-0.7,3.4-0.7c1.8,0,3.2,0.4,4.2,1.1s1.6,1.8,1.9,3.1l-2.9,0.5
		c-0.2-0.7-0.6-1.3-1.1-1.7s-1.3-0.6-2.1-0.6c-1.3,0-2.3,0.4-3,1.2s-1.1,2-1.1,3.6c0,1.7,0.4,3,1.1,3.8s1.7,1.3,3,1.3
		c0.6,0,1.2-0.1,1.8-0.4s1.1-0.5,1.6-0.9v-1.8H268.1z"/>
	<path d="M277,278v-14.3h2.8l5.9,9.6v-9.6h2.7V278h-2.9l-5.8-9.3v9.3H277z"/>
	<path d="M291.4,263.7h5.3c1.2,0,2.1,0.1,2.7,0.3c0.8,0.2,1.6,0.7,2.2,1.3s1.1,1.4,1.4,2.3s0.5,2,0.5,3.4c0,1.2-0.1,2.2-0.4,3
		c-0.4,1-0.9,1.9-1.5,2.5c-0.5,0.5-1.2,0.9-2,1.1c-0.6,0.2-1.5,0.3-2.6,0.3h-5.4V263.7z M294.3,266.1v9.5h2.2c0.8,0,1.4,0,1.7-0.1
		c0.5-0.1,0.9-0.3,1.2-0.6s0.6-0.7,0.8-1.4s0.3-1.5,0.3-2.6s-0.1-2-0.3-2.5s-0.5-1.1-0.8-1.4s-0.8-0.6-1.3-0.7
		c-0.4-0.1-1.2-0.1-2.4-0.1H294.3z"/>
	<path d="M306.8,270.3l-1.5-1.1c0.5-0.5,1-1,1.5-1.5c0.2-0.2,0.3-0.3,0.4-0.4c-0.2,0-0.6-0.1-1.4-0.3c-0.6-0.1-0.9-0.2-1.1-0.3
		l0.6-1.7c0.9,0.3,1.6,0.7,2.3,1.1c-0.2-1.1-0.2-1.9-0.2-2.6h1.7c0,0.5-0.1,1.3-0.3,2.6c0.1-0.1,0.4-0.2,0.8-0.4
		c0.6-0.3,1.1-0.5,1.6-0.7l0.5,1.8c-0.7,0.2-1.6,0.3-2.5,0.5l1.2,1.3c0.2,0.3,0.4,0.5,0.6,0.7l-1.5,1l-1.3-2.2
		C307.8,268.7,307.3,269.5,306.8,270.3z"/>
</g>
<g class="st0">
	<path d="M147.5,318h-1.8v-11.2c-0.4,0.4-1,0.8-1.7,1.2s-1.3,0.7-1.9,0.9v-1.7c1-0.5,1.8-1,2.6-1.7s1.3-1.3,1.6-1.9h1.1V318z"/>
	<path d="M152,314.3l1.8-0.2c0.1,0.9,0.5,1.6,1,2s1.1,0.7,1.8,0.7c0.8,0,1.6-0.3,2.1-1s0.9-1.5,0.9-2.5c0-1-0.3-1.8-0.8-2.4
		s-1.3-0.9-2.2-0.9c-0.6,0-1.1,0.1-1.5,0.4s-0.8,0.6-1.1,1l-1.7-0.2l1.4-7.4h7.1v1.7h-5.7l-0.8,3.8c0.9-0.6,1.8-0.9,2.7-0.9
		c1.3,0,2.3,0.4,3.2,1.3s1.3,2,1.3,3.3c0,1.3-0.4,2.4-1.1,3.4c-0.9,1.2-2.2,1.7-3.8,1.7c-1.3,0-2.4-0.4-3.2-1.1
		S152.1,315.5,152,314.3z"/>
</g>
<circle cx="175" cy="310" r="8"/>
<g class="st0">
	<path d="M11.5,318v-14.3h6.1c1.5,0,2.6,0.1,3.3,0.4s1.2,0.7,1.7,1.4s0.6,1.4,0.6,2.3c0,1.1-0.3,2-0.9,2.7s-1.6,1.1-2.8,1.3
		c0.6,0.4,1.1,0.8,1.5,1.2s1,1.2,1.6,2.3l1.7,2.8h-3.5l-2.1-3.1c-0.7-1.1-1.3-1.8-1.5-2.1s-0.6-0.5-0.9-0.6s-0.8-0.2-1.5-0.2h-0.6v6
		H11.5z M14.4,309.7h2.1c1.4,0,2.3-0.1,2.6-0.2s0.6-0.3,0.8-0.6s0.3-0.6,0.3-1.1c0-0.5-0.1-0.9-0.4-1.2s-0.6-0.5-1.1-0.6
		c-0.2,0-0.9,0-2.1,0h-2.3V309.7z"/>
	<path d="M25.9,318v-14.3h10.6v2.4h-7.7v3.2H36v2.4h-7.2v3.9h8v2.4H25.9z"/>
	<path d="M38.5,313.3l2.8-0.3c0.2,0.9,0.5,1.6,1,2.1s1.2,0.7,2.1,0.7c0.9,0,1.6-0.2,2.1-0.6s0.7-0.9,0.7-1.4c0-0.3-0.1-0.6-0.3-0.9
		s-0.5-0.4-1-0.6c-0.3-0.1-1.1-0.3-2.3-0.6c-1.5-0.4-2.6-0.9-3.3-1.4c-0.9-0.8-1.3-1.7-1.3-2.9c0-0.7,0.2-1.4,0.6-2s1-1.1,1.8-1.5
		s1.7-0.5,2.8-0.5c1.8,0,3.1,0.4,4.1,1.2s1.4,1.8,1.4,3.2l-2.9,0.1c-0.1-0.7-0.4-1.3-0.8-1.6s-1-0.5-1.8-0.5c-0.8,0-1.5,0.2-2,0.5
		c-0.3,0.2-0.5,0.5-0.5,0.9c0,0.3,0.1,0.6,0.4,0.9c0.4,0.3,1.3,0.6,2.7,1s2.4,0.7,3.1,1s1.2,0.8,1.6,1.5s0.6,1.4,0.6,2.3
		c0,0.8-0.2,1.6-0.7,2.3s-1.1,1.2-1.9,1.6s-1.9,0.5-3.1,0.5c-1.8,0-3.2-0.4-4.2-1.3S38.7,314.9,38.5,313.3z"/>
	<path d="M52.6,318v-14.3h10.6v2.4h-7.7v3.2h7.2v2.4h-7.2v3.9h8v2.4H52.6z"/>
	<path d="M69.1,318v-11.9h-4.2v-2.4h11.4v2.4H72V318H69.1z"/>
</g>
<g class="st0">
	<path d="M227.5,318h-1.8v-11.2c-0.4,0.4-1,0.8-1.7,1.2s-1.3,0.7-1.9,0.9v-1.7c1-0.5,1.8-1,2.6-1.7s1.3-1.3,1.6-1.9h1.1V318z"/>
	<path d="M241.1,307.2l-1.7,0.1c-0.2-0.7-0.4-1.2-0.7-1.5c-0.5-0.5-1.1-0.8-1.8-0.8c-0.6,0-1.1,0.2-1.5,0.5c-0.6,0.4-1,1-1.3,1.8
		s-0.5,1.9-0.5,3.3c0.4-0.6,0.9-1.1,1.6-1.4s1.3-0.5,1.9-0.5c1.2,0,2.2,0.4,3,1.3s1.2,2,1.2,3.3c0,0.9-0.2,1.7-0.6,2.5
		s-0.9,1.4-1.6,1.8s-1.4,0.6-2.3,0.6c-1.5,0-2.7-0.5-3.6-1.6s-1.4-2.9-1.4-5.3c0-2.8,0.5-4.8,1.5-6c0.9-1.1,2.1-1.6,3.6-1.6
		c1.1,0,2,0.3,2.8,0.9S240.9,306.1,241.1,307.2z M233.9,313.4c0,0.6,0.1,1.2,0.4,1.7s0.6,1,1.1,1.3s0.9,0.4,1.5,0.4
		c0.7,0,1.4-0.3,1.9-0.9s0.8-1.4,0.8-2.4c0-1-0.3-1.8-0.8-2.3s-1.2-0.9-2-0.9c-0.8,0-1.5,0.3-2,0.9S233.9,312.4,233.9,313.4z"/>
</g>
<circle cx="205" cy="310" r="8"/>
<g class="st0">
	<path d="M268.1,312.7v-2.4h6.2v5.7c-0.6,0.6-1.5,1.1-2.6,1.5s-2.3,0.7-3.5,0.7c-1.5,0-2.8-0.3-3.9-0.9s-1.9-1.5-2.5-2.7
		s-0.8-2.4-0.8-3.8c0-1.5,0.3-2.8,0.9-4s1.5-2,2.7-2.7c0.9-0.5,2.1-0.7,3.4-0.7c1.8,0,3.2,0.4,4.2,1.1s1.6,1.8,1.9,3.1l-2.9,0.5
		c-0.2-0.7-0.6-1.3-1.1-1.7s-1.3-0.6-2.1-0.6c-1.3,0-2.3,0.4-3,1.2s-1.1,2-1.1,3.6c0,1.7,0.4,3,1.1,3.8s1.7,1.3,3,1.3
		c0.6,0,1.2-0.1,1.8-0.4s1.1-0.5,1.6-0.9v-1.8H268.1z"/>
	<path d="M277,318v-14.3h2.8l5.9,9.6v-9.6h2.7V318h-2.9l-5.8-9.3v9.3H277z"/>
	<path d="M291.4,303.7h5.3c1.2,0,2.1,0.1,2.7,0.3c0.8,0.2,1.6,0.7,2.2,1.3s1.1,1.4,1.4,2.3s0.5,2,0.5,3.4c0,1.2-0.1,2.2-0.4,3
		c-0.4,1-0.9,1.9-1.5,2.5c-0.5,0.5-1.2,0.9-2,1.1c-0.6,0.2-1.5,0.3-2.6,0.3h-5.4V303.7z M294.3,306.1v9.5h2.2c0.8,0,1.4,0,1.7-0.1
		c0.5-0.1,0.9-0.3,1.2-0.6s0.6-0.7,0.8-1.4s0.3-1.5,0.3-2.6s-0.1-2-0.3-2.5s-0.5-1.1-0.8-1.4s-0.8-0.6-1.3-0.7
		c-0.4-0.1-1.2-0.1-2.4-0.1H294.3z"/>
	<path d="M306.8,310.3l-1.5-1.1c0.5-0.5,1-1,1.5-1.5c0.2-0.2,0.3-0.3,0.4-0.4c-0.2,0-0.6-0.1-1.4-0.3c-0.6-0.1-0.9-0.2-1.1-0.3
		l0.6-1.7c0.9,0.3,1.6,0.7,2.3,1.1c-0.2-1.1-0.2-1.9-0.2-2.6h1.7c0,0.5-0.1,1.3-0.3,2.6c0.1-0.1,0.4-0.2,0.8-0.4
		c0.6-0.3,1.1-0.5,1.6-0.7l0.5,1.8c-0.7,0.2-1.6,0.3-2.5,0.5l1.2,1.3c0.2,0.3,0.4,0.5,0.6,0.7l-1.5,1l-1.3-2.2
		C307.8,308.7,307.3,309.5,306.8,310.3z"/>
</g>
<g class="st0">
	<path d="M147.5,358h-1.8v-11.2c-0.4,0.4-1,0.8-1.7,1.2s-1.3,0.7-1.9,0.9v-1.7c1-0.5,1.8-1,2.6-1.7s1.3-1.3,1.6-1.9h1.1V358z"/>
	<path d="M152.1,345.6v-1.7h9.3v1.4c-0.9,1-1.8,2.3-2.7,3.9s-1.6,3.3-2.1,5c-0.4,1.2-0.6,2.5-0.7,3.9h-1.8c0-1.1,0.2-2.5,0.7-4.1
		s1-3.1,1.8-4.6s1.6-2.7,2.5-3.7H152.1z"/>
</g>
<circle cx="175" cy="350" r="8"/>
<g class="st0">
	<path d="M11.4,343.7h5.3c1.2,0,2.1,0.1,2.7,0.3c0.8,0.2,1.6,0.7,2.2,1.3s1.1,1.4,1.4,2.3s0.5,2,0.5,3.4c0,1.2-0.1,2.2-0.4,3
		c-0.4,1-0.9,1.9-1.5,2.5c-0.5,0.5-1.2,0.9-2,1.1c-0.6,0.2-1.5,0.3-2.6,0.3h-5.4V343.7z M14.3,346.1v9.5h2.2c0.8,0,1.4,0,1.7-0.1
		c0.5-0.1,0.9-0.3,1.2-0.6s0.6-0.7,0.8-1.4s0.3-1.5,0.3-2.6s-0.1-2-0.3-2.5s-0.5-1.1-0.8-1.4s-0.8-0.6-1.3-0.7
		c-0.4-0.1-1.2-0.1-2.4-0.1H14.3z"/>
	<path d="M25.9,343.7h5.7c1.1,0,2,0,2.5,0.1s1.1,0.3,1.5,0.6s0.8,0.7,1.1,1.2s0.4,1.1,0.4,1.7c0,0.7-0.2,1.3-0.5,1.8s-0.9,1-1.5,1.3
		c0.9,0.3,1.5,0.7,2,1.3s0.7,1.3,0.7,2.2c0,0.7-0.2,1.3-0.5,1.9s-0.7,1.1-1.2,1.5s-1.2,0.6-1.9,0.7c-0.5,0.1-1.6,0.1-3.5,0.1h-4.9
		V343.7z M28.8,346.1v3.3h1.9c1.1,0,1.8,0,2.1,0c0.5-0.1,0.9-0.2,1.2-0.5s0.4-0.7,0.4-1.1c0-0.4-0.1-0.8-0.4-1.1s-0.6-0.4-1.1-0.5
		c-0.3,0-1.1,0-2.5,0H28.8z M28.8,351.8v3.8h2.7c1,0,1.7,0,2-0.1c0.4-0.1,0.8-0.3,1-0.6s0.4-0.7,0.4-1.2c0-0.4-0.1-0.8-0.3-1.1
		s-0.5-0.5-0.9-0.7s-1.2-0.2-2.6-0.2H28.8z"/>
	<path d="M47,352.7v-2.4h6.2v5.7c-0.6,0.6-1.5,1.1-2.6,1.5s-2.3,0.7-3.5,0.7c-1.5,0-2.8-0.3-3.9-0.9s-1.9-1.5-2.5-2.7
		s-0.8-2.4-0.8-3.8c0-1.5,0.3-2.8,0.9-4s1.5-2,2.7-2.7c0.9-0.5,2.1-0.7,3.4-0.7c1.8,0,3.2,0.4,4.2,1.1s1.6,1.8,1.9,3.1l-2.9,0.5
		c-0.2-0.7-0.6-1.3-1.1-1.7s-1.3-0.6-2.1-0.6c-1.3,0-2.3,0.4-3,1.2s-1.1,2-1.1,3.6c0,1.7,0.4,3,1.1,3.8s1.7,1.3,3,1.3
		c0.6,0,1.2-0.1,1.8-0.4s1.1-0.5,1.6-0.9v-1.8H47z"/>
	<path d="M55.9,358v-14.3H62c1.5,0,2.6,0.1,3.3,0.4s1.2,0.7,1.7,1.4s0.6,1.4,0.6,2.3c0,1.1-0.3,2-0.9,2.7s-1.6,1.1-2.8,1.3
		c0.6,0.4,1.1,0.8,1.5,1.2s1,1.2,1.6,2.3l1.7,2.8h-3.5l-2.1-3.1c-0.7-1.1-1.3-1.8-1.5-2.1s-0.6-0.5-0.9-0.6S60,352,59.4,352h-0.6v6
		H55.9z M58.8,349.7h2.1c1.4,0,2.3-0.1,2.6-0.2s0.6-0.3,0.8-0.6s0.3-0.6,0.3-1.1c0-0.5-0.1-0.9-0.4-1.2s-0.6-0.5-1.1-0.6
		c-0.2,0-0.9,0-2.1,0h-2.3V349.7z"/>
	<path d="M81.9,356.2c0.7,0.5,1.5,0.9,2.3,1.2l-1.1,2c-0.4-0.1-0.9-0.3-1.3-0.5c-0.1,0-0.7-0.5-1.9-1.3c-0.9,0.4-2,0.6-3.1,0.6
		c-2.2,0-3.9-0.6-5.2-1.9s-1.9-3.1-1.9-5.5c0-2.3,0.6-4.2,1.9-5.5s2.9-1.9,5.1-1.9c2.1,0,3.8,0.6,5,1.9s1.9,3.1,1.9,5.5
		c0,1.2-0.2,2.3-0.5,3.3C82.9,354.8,82.4,355.5,81.9,356.2z M79.5,354.6c0.4-0.4,0.6-1,0.8-1.6s0.3-1.3,0.3-2.1
		c0-1.7-0.4-2.9-1.1-3.7s-1.7-1.2-2.9-1.2s-2.1,0.4-2.9,1.2s-1.1,2.1-1.1,3.7c0,1.7,0.4,2.9,1.1,3.8s1.7,1.2,2.8,1.2
		c0.4,0,0.8-0.1,1.2-0.2c-0.6-0.4-1.2-0.7-1.8-0.9l0.8-1.7C77.8,353.4,78.7,353.9,79.5,354.6z"/>
</g>
<g class="st0">
	<path d="M227.5,358h-1.8v-11.2c-0.4,0.4-1,0.8-1.7,1.2s-1.3,0.7-1.9,0.9v-1.7c1-0.5,1.8-1,2.6-1.7s1.3-1.3,1.6-1.9h1.1V358z"/>
	<path d="M234.7,350.2c-0.7-0.3-1.3-0.6-1.6-1.1s-0.5-1.1-0.5-1.8c0-1,0.4-1.9,1.1-2.6s1.7-1.1,3-1.1c1.3,0,2.3,0.4,3,1.1
		s1.1,1.6,1.1,2.7c0,0.7-0.2,1.2-0.5,1.7s-0.9,0.9-1.6,1.1c0.9,0.3,1.5,0.7,2,1.4s0.7,1.4,0.7,2.3c0,1.2-0.4,2.3-1.3,3.1
		s-2,1.3-3.4,1.3s-2.6-0.4-3.4-1.3s-1.3-1.9-1.3-3.1c0-0.9,0.2-1.7,0.7-2.3S233.8,350.5,234.7,350.2z M233.7,353.9
		c0,0.5,0.1,1,0.4,1.5s0.6,0.8,1.1,1.1s1,0.4,1.5,0.4c0.8,0,1.5-0.3,2.1-0.8s0.8-1.2,0.8-2.1c0-0.8-0.3-1.5-0.8-2.1
		s-1.3-0.8-2.1-0.8c-0.8,0-1.5,0.3-2.1,0.8S233.7,353,233.7,353.9z M234.3,347.3c0,0.7,0.2,1.2,0.7,1.7s1,0.6,1.7,0.6
		c0.7,0,1.2-0.2,1.7-0.6s0.6-0.9,0.6-1.6c0-0.6-0.2-1.2-0.7-1.6s-1-0.7-1.7-0.7c-0.7,0-1.2,0.2-1.7,0.6S234.3,346.7,234.3,347.3z"/>
</g>
<circle cx="205" cy="350" r="8"/>
<g class="st0">
	<path d="M268.1,352.7v-2.4h6.2v5.7c-0.6,0.6-1.5,1.1-2.6,1.5s-2.3,0.7-3.5,0.7c-1.5,0-2.8-0.3-3.9-0.9s-1.9-1.5-2.5-2.7
		s-0.8-2.4-0.8-3.8c0-1.5,0.3-2.8,0.9-4s1.5-2,2.7-2.7c0.9-0.5,2.1-0.7,3.4-0.7c1.8,0,3.2,0.4,4.2,1.1s1.6,1.8,1.9,3.1l-2.9,0.5
		c-0.2-0.7-0.6-1.3-1.1-1.7s-1.3-0.6-2.1-0.6c-1.3,0-2.3,0.4-3,1.2s-1.1,2-1.1,3.6c0,1.7,0.4,3,1.1,3.8s1.7,1.3,3,1.3
		c0.6,0,1.2-0.1,1.8-0.4s1.1-0.5,1.6-0.9v-1.8H268.1z"/>
	<path d="M277,358v-14.3h2.8l5.9,9.6v-9.6h2.7V358h-2.9l-5.8-9.3v9.3H277z"/>
	<path d="M291.4,343.7h5.3c1.2,0,2.1,0.1,2.7,0.3c0.8,0.2,1.6,0.7,2.2,1.3s1.1,1.4,1.4,2.3s0.5,2,0.5,3.4c0,1.2-0.1,2.2-0.4,3
		c-0.4,1-0.9,1.9-1.5,2.5c-0.5,0.5-1.2,0.9-2,1.1c-0.6,0.2-1.5,0.3-2.6,0.3h-5.4V343.7z M294.3,346.1v9.5h2.2c0.8,0,1.4,0,1.7-0.1
		c0.5-0.1,0.9-0.3,1.2-0.6s0.6-0.7,0.8-1.4s0.3-1.5,0.3-2.6s-0.1-2-0.3-2.5s-0.5-1.1-0.8-1.4s-0.8-0.6-1.3-0.7
		c-0.4-0.1-1.2-0.1-2.4-0.1H294.3z"/>
	<path d="M306.8,350.3l-1.5-1.1c0.5-0.5,1-1,1.5-1.5c0.2-0.2,0.3-0.3,0.4-0.4c-0.2,0-0.6-0.1-1.4-0.3c-0.6-0.1-0.9-0.2-1.1-0.3
		l0.6-1.7c0.9,0.3,1.6,0.7,2.3,1.1c-0.2-1.1-0.2-1.9-0.2-2.6h1.7c0,0.5-0.1,1.3-0.3,2.6c0.1-0.1,0.4-0.2,0.8-0.4
		c0.6-0.3,1.1-0.5,1.6-0.7l0.5,1.8c-0.7,0.2-1.6,0.3-2.5,0.5l1.2,1.3c0.2,0.3,0.4,0.5,0.6,0.7l-1.5,1l-1.3-2.2
		C307.8,348.7,307.3,349.5,306.8,350.3z"/>
</g>
<g class="st0">
	<path d="M147.5,398h-1.8v-11.2c-0.4,0.4-1,0.8-1.7,1.2s-1.3,0.7-1.9,0.9v-1.7c1-0.5,1.8-1,2.6-1.7s1.3-1.3,1.6-1.9h1.1V398z"/>
	<path d="M152.2,394.7l1.7-0.2c0.1,0.8,0.4,1.4,0.8,1.7s0.9,0.5,1.6,0.5c0.5,0,1-0.1,1.4-0.4s0.7-0.6,1-1s0.5-1,0.7-1.7
		s0.3-1.4,0.3-2.1c0-0.1,0-0.2,0-0.4c-0.4,0.6-0.8,1-1.4,1.4s-1.3,0.5-2,0.5c-1.2,0-2.2-0.4-3-1.3s-1.2-2-1.2-3.4
		c0-1.5,0.4-2.6,1.3-3.5s1.9-1.3,3.2-1.3c0.9,0,1.8,0.3,2.6,0.8s1.4,1.2,1.8,2.1s0.6,2.3,0.6,4c0,1.8-0.2,3.3-0.6,4.4
		s-1,1.9-1.8,2.5s-1.7,0.8-2.8,0.8c-1.1,0-2-0.3-2.7-0.9S152.4,395.8,152.2,394.7z M159.4,388.4c0-1-0.3-1.8-0.8-2.4
		s-1.2-0.9-1.9-0.9c-0.8,0-1.5,0.3-2,1s-0.9,1.5-0.9,2.5c0,0.9,0.3,1.7,0.8,2.2s1.2,0.9,2,0.9c0.8,0,1.5-0.3,2-0.9
		S159.4,389.4,159.4,388.4z"/>
</g>
<circle cx="175" cy="390" r="8"/>
<g class="st0">
	<path d="M10.9,394.3l2.7-0.3c0.1,0.6,0.3,1.1,0.7,1.5s0.8,0.5,1.3,0.5c0.6,0,1.1-0.2,1.5-0.7s0.6-1.2,0.6-2.1c0-0.9-0.2-1.5-0.6-2
		s-0.9-0.7-1.5-0.7c-0.8,0-1.5,0.3-2.1,1l-2.2-0.3l1.4-7.5h7.3v2.6h-5.2l-0.4,2.4c0.6-0.3,1.2-0.5,1.9-0.5c1.2,0,2.2,0.4,3.1,1.3
		s1.3,2,1.3,3.4c0,1.2-0.3,2.2-1,3.2c-0.9,1.3-2.2,1.9-3.9,1.9c-1.3,0-2.4-0.4-3.2-1.1S11.1,395.5,10.9,394.3z"/>
	<path d="M26.2,398l-5.1-14.3h3.1l3.6,10.6l3.5-10.6h3.1L29.3,398H26.2z"/>
	<path d="M34.5,394.2v-2.7h5.4v2.7H34.5z"/>
	<path d="M40.7,393.3l2.8-0.3c0.2,0.9,0.5,1.6,1,2.1s1.2,0.7,2.1,0.7c0.9,0,1.6-0.2,2.1-0.6s0.7-0.9,0.7-1.4c0-0.3-0.1-0.6-0.3-0.9
		s-0.5-0.4-1-0.6c-0.3-0.1-1.1-0.3-2.3-0.6c-1.5-0.4-2.6-0.9-3.3-1.4c-0.9-0.8-1.3-1.7-1.3-2.9c0-0.7,0.2-1.4,0.6-2s1-1.1,1.8-1.5
		s1.7-0.5,2.8-0.5c1.8,0,3.1,0.4,4.1,1.2s1.4,1.8,1.4,3.2l-2.9,0.1c-0.1-0.7-0.4-1.3-0.8-1.6s-1-0.5-1.8-0.5c-0.8,0-1.5,0.2-2,0.5
		c-0.3,0.2-0.5,0.5-0.5,0.9c0,0.3,0.1,0.6,0.4,0.9c0.4,0.3,1.3,0.6,2.7,1s2.4,0.7,3.1,1s1.2,0.8,1.6,1.5s0.6,1.4,0.6,2.3
		c0,0.8-0.2,1.6-0.7,2.3s-1.1,1.2-1.9,1.6s-1.9,0.5-3.1,0.5c-1.8,0-3.2-0.4-4.2-1.3S40.9,394.9,40.7,393.3z"/>
	<path d="M61.6,398v-1.6c-0.4,0.6-0.9,1-1.5,1.3s-1.3,0.5-1.9,0.5c-0.7,0-1.3-0.2-1.9-0.5s-1-0.7-1.2-1.3s-0.4-1.3-0.4-2.3v-6.6h2.7
		v4.8c0,1.5,0.1,2.4,0.2,2.7s0.3,0.6,0.6,0.8s0.6,0.3,1,0.3c0.5,0,0.9-0.1,1.3-0.4s0.6-0.6,0.8-1s0.2-1.3,0.2-2.8v-4.4h2.7V398H61.6
		z"/>
	<path d="M66.9,387.6h2.6v1.5c0.3-0.5,0.8-0.9,1.3-1.3s1.2-0.5,1.9-0.5c1.2,0,2.2,0.5,3.1,1.4s1.3,2.3,1.3,3.9c0,1.7-0.4,3.1-1.3,4
		s-1.9,1.4-3.1,1.4c-0.6,0-1.1-0.1-1.6-0.3s-1-0.6-1.5-1.2v5.2h-2.7V387.6z M69.6,392.6c0,1.2,0.2,2,0.7,2.6s1,0.8,1.7,0.8
		c0.6,0,1.2-0.3,1.6-0.8s0.6-1.3,0.6-2.5c0-1.1-0.2-1.9-0.7-2.4s-1-0.8-1.6-0.8c-0.7,0-1.2,0.3-1.7,0.8S69.6,391.6,69.6,392.6z"/>
	<path d="M79.2,387.6h2.6v1.5c0.3-0.5,0.8-0.9,1.3-1.3s1.2-0.5,1.9-0.5c1.2,0,2.2,0.5,3.1,1.4s1.3,2.3,1.3,3.9c0,1.7-0.4,3.1-1.3,4
		s-1.9,1.4-3.1,1.4c-0.6,0-1.1-0.1-1.6-0.3s-1-0.6-1.5-1.2v5.2h-2.7V387.6z M81.9,392.6c0,1.2,0.2,2,0.7,2.6s1,0.8,1.7,0.8
		c0.6,0,1.2-0.3,1.6-0.8s0.6-1.3,0.6-2.5c0-1.1-0.2-1.9-0.7-2.4s-1-0.8-1.6-0.8c-0.7,0-1.2,0.3-1.7,0.8S81.9,391.6,81.9,392.6z"/>
	<path d="M91.4,398v-14.3h2.7V398H91.4z"/>
	<path d="M95.7,387.6h2.9l2.5,7.4l2.4-7.4h2.8l-3.7,10l-0.7,1.8c-0.2,0.6-0.5,1.1-0.7,1.4s-0.5,0.6-0.8,0.8s-0.6,0.4-1,0.5
		s-0.9,0.2-1.4,0.2c-0.5,0-1-0.1-1.6-0.2l-0.2-2.1c0.4,0.1,0.8,0.1,1.2,0.1c0.6,0,1.1-0.2,1.4-0.6s0.5-0.9,0.7-1.4L95.7,387.6z"/>
</g>
<g class="st0">
	<path d="M230.1,396.3v1.7h-9.5c0-0.4,0.1-0.8,0.2-1.2c0.2-0.6,0.6-1.3,1.2-1.9s1.3-1.3,2.3-2.2c1.6-1.3,2.6-2.3,3.2-3
		s0.8-1.5,0.8-2.1c0-0.7-0.2-1.3-0.7-1.8s-1.1-0.7-1.9-0.7c-0.8,0-1.5,0.3-2,0.8s-0.8,1.2-0.8,2.1l-1.8-0.2c0.1-1.3,0.6-2.4,1.4-3.1
		s1.9-1.1,3.3-1.1c1.4,0,2.5,0.4,3.3,1.1s1.2,1.7,1.2,2.8c0,0.6-0.1,1.1-0.4,1.7s-0.6,1.1-1.2,1.7s-1.4,1.5-2.7,2.5
		c-1.1,0.9-1.7,1.5-2,1.8s-0.5,0.6-0.7,1H230.1z"/>
	<path d="M232,390.9c0-1.7,0.2-3.1,0.5-4.1s0.9-1.8,1.6-2.4s1.6-0.8,2.6-0.8c0.8,0,1.4,0.2,2,0.5s1.1,0.8,1.4,1.3s0.7,1.3,0.9,2.1
		s0.3,2,0.3,3.4c0,1.7-0.2,3-0.5,4.1s-0.9,1.8-1.5,2.4s-1.6,0.8-2.6,0.8c-1.4,0-2.5-0.5-3.3-1.5C232.4,395.6,232,393.6,232,390.9z
		 M233.8,390.9c0,2.4,0.3,3.9,0.8,4.7s1.2,1.2,2,1.2s1.5-0.4,2-1.2s0.8-2.3,0.8-4.7c0-2.4-0.3-3.9-0.8-4.7s-1.2-1.2-2.1-1.2
		c-0.8,0-1.5,0.3-1.9,1C234.1,387,233.8,388.6,233.8,390.9z"/>
</g>
<circle cx="205" cy="390" r="8"/>
<g class="st0">
	<path d="M268.1,392.7v-2.4h6.2v5.7c-0.6,0.6-1.5,1.1-2.6,1.5s-2.3,0.7-3.5,0.7c-1.5,0-2.8-0.3-3.9-0.9s-1.9-1.5-2.5-2.7
		s-0.8-2.4-0.8-3.8c0-1.5,0.3-2.8,0.9-4s1.5-2,2.7-2.7c0.9-0.5,2.1-0.7,3.4-0.7c1.8,0,3.2,0.4,4.2,1.1s1.6,1.8,1.9,3.1l-2.9,0.5
		c-0.2-0.7-0.6-1.3-1.1-1.7s-1.3-0.6-2.1-0.6c-1.3,0-2.3,0.4-3,1.2s-1.1,2-1.1,3.6c0,1.7,0.4,3,1.1,3.8s1.7,1.3,3,1.3
		c0.6,0,1.2-0.1,1.8-0.4s1.1-0.5,1.6-0.9v-1.8H268.1z"/>
	<path d="M277,398v-14.3h2.8l5.9,9.6v-9.6h2.7V398h-2.9l-5.8-9.3v9.3H277z"/>
	<path d="M291.4,383.7h5.3c1.2,0,2.1,0.1,2.7,0.3c0.8,0.2,1.6,0.7,2.2,1.3s1.1,1.4,1.4,2.3s0.5,2,0.5,3.4c0,1.2-0.1,2.2-0.4,3
		c-0.4,1-0.9,1.9-1.5,2.5c-0.5,0.5-1.2,0.9-2,1.1c-0.6,0.2-1.5,0.3-2.6,0.3h-5.4V383.7z M294.3,386.1v9.5h2.2c0.8,0,1.4,0,1.7-0.1
		c0.5-0.1,0.9-0.3,1.2-0.6s0.6-0.7,0.8-1.4s0.3-1.5,0.3-2.6s-0.1-2-0.3-2.5s-0.5-1.1-0.8-1.4s-0.8-0.6-1.3-0.7
		c-0.4-0.1-1.2-0.1-2.4-0.1H294.3z"/>
	<path d="M306.8,390.3l-1.5-1.1c0.5-0.5,1-1,1.5-1.5c0.2-0.2,0.3-0.3,0.4-0.4c-0.2,0-0.6-0.1-1.4-0.3c-0.6-0.1-0.9-0.2-1.1-0.3
		l0.6-1.7c0.9,0.3,1.6,0.7,2.3,1.1c-0.2-1.1-0.2-1.9-0.2-2.6h1.7c0,0.5-0.1,1.3-0.3,2.6c0.1-0.1,0.4-0.2,0.8-0.4
		c0.6-0.3,1.1-0.5,1.6-0.7l0.5,1.8c-0.7,0.2-1.6,0.3-2.5,0.5l1.2,1.3c0.2,0.3,0.4,0.5,0.6,0.7l-1.5,1l-1.3-2.2
		C307.8,388.7,307.3,389.5,306.8,390.3z"/>
</g>
</svg>
