<svg preserveAspectRatio="xMidYMid meet" viewBox="0 0 300.00714111 44.09120178" xmlns="http://www.w3.org/2000/svg"><g><path d="m24 0h76v76c0 13.255-10.745 24-24 24h-76v-76c0-13.255 10.745-24 24-24z" fill="#9a197e" transform="scale(.44091194849)"/><g fill="#fff" transform="matrix(.3712942731 0 0 .3712942731 3.48014221127 3.48088376971)"><path d="m40 13.5h20a1 1 0 0 0 1-1v-4.7a1 1 0 0 0 -1-1h-20c-.5 0-1 .5-1 1v4.7c0 .5.5 1 1 1z"/><path d="m36.398 80.301h6.8v17.199h13.603v-17.199h6.8c3.301 0 6-2.7 6-6v-43c0-1.7-1.3-3-3-3h-1.398l-.003-20.801c0-2.8-2.199-5-5-5h-20.399c-2.8 0-5 2.2-5 5v20.898h-1.398c-1.7 0-3 1.3-3 3v43c-.004 3.203 2.7 5.902 5.996 5.902zm-4-48.902c0-.602.398-1 1-1h33.199c.602 0 1 .398 1 1v43c0 2.2-1.8 4-4 4h-27.199c-2.2 0-4-1.8-4-4zm7.402-26.898h20.398c1.7 0 3 1.3 3 3v20.898h-26.398v-20.898c0-1.602 1.399-3 3-3zm15 91h-9.6v-15.199h9.6z"/></g><path d="m-186.06-23.83c0 .17.03.3.07.4l7.4 12.25c.09.14.14.31.14.5v8.97c0 .54.27.97.82 1.26.55.3 1.2.45 1.97.45.76 0 1.41-.15 1.96-.45.55-.29.82-.72.82-1.26v-8.97c0-.19.05-.36.15-.5l7.35-12.25c.05-.1.08-.23.08-.4 0-.62-.43-1.15-1.27-1.6-.85-.46-1.69-.68-2.52-.68-.71 0-1.25.34-1.61 1.03l-4.96 9.18-5-9.18c-.22-.38-.43-.65-.65-.8-.21-.16-.53-.23-.96-.23-.84 0-1.67.22-2.52.68-.85.45-1.27.98-1.27 1.6zm26.33 15.61c0 2.91.81 5.04 2.45 6.4 1.63 1.36 3.81 2.03 6.55 2.03 2.72 0 4.89-.67 6.54-2.03 1.64-1.36 2.46-3.49 2.46-6.4v-16.21c0-.55-.27-.97-.82-1.25-.55-.29-1.2-.43-1.96-.43-.79 0-1.45.14-1.99.43-.53.28-.8.7-.8 1.25v16.21c0 2.39-1.14 3.58-3.43 3.58s-3.43-1.19-3.43-3.58v-16.21c0-.55-.27-.97-.82-1.25-.55-.29-1.2-.43-1.96-.43-.79 0-1.45.14-1.99.43-.53.28-.8.7-.8 1.25zm25.33 6.51c0 .54.27.97.82 1.26.55.3 1.2.45 1.96.45s1.42-.15 1.97-.45c.54-.29.82-.72.82-1.26v-8.61h2.36l4.89 9.5c.36.69.95 1.03 1.79 1.03.83 0 1.62-.31 2.37-.92.75-.62 1.13-1.28 1.13-1.97 0-.26-.06-.48-.18-.64l-4.36-7.9c2.88-1.12 4.32-3.53 4.32-7.25 0-5.09-2.93-7.64-8.79-7.64h-7.39c-.5 0-.91.16-1.23.5-.32.33-.48.72-.48 1.18zm5.57-12.9v-6.64h3.53c1.05 0 1.85.25 2.4.76.55.52.82 1.37.82 2.56s-.27 2.04-.82 2.55-1.35.77-2.4.77zm18.86 12.9c0 .54.27.97.82 1.26.55.3 1.2.45 1.97.45.76 0 1.41-.15 1.96-.45.55-.29.82-.72.82-1.26v-22.72c0-.55-.27-.97-.82-1.25-.55-.29-1.2-.43-1.96-.43-.77 0-1.42.14-1.97.43-.55.28-.82.7-.82 1.25zm12.72-6.51c0 2.91.79 5.04 2.37 6.4 1.59 1.36 3.65 2.03 6.2 2.03 2.62 0 4.77-.66 6.45-2 1.68-1.33 2.52-3.15 2.52-5.46 0-1.03-.22-1.72-.65-2.09s-1.15-.56-2.18-.56c-1.73 0-2.65.56-2.75 1.68-.04.5-.1.9-.16 1.18-.06.29-.18.65-.37 1.09s-.51.77-.95.98c-.44.22-.99.33-1.66.33-2.17 0-3.25-1.19-3.25-3.58v-9.46c0-2.38 1.07-3.57 3.21-3.57 2.05 0 3.11 1.07 3.18 3.21.08 1.12 1 1.68 2.79 1.68 1 0 1.71-.19 2.14-.55.43-.37.65-1.07.65-2.09 0-2.22-.84-3.96-2.52-5.22s-3.83-1.89-6.45-1.89c-2.55 0-4.61.68-6.2 2.03-1.58 1.36-2.37 3.49-2.37 6.4zm22.14 5.93c0 .62.39 1.16 1.17 1.61.77.45 1.57.68 2.41.68 1.02 0 1.63-.35 1.82-1.04l1.21-4.46h7.54l1.21 4.46c.2.69.8 1.04 1.83 1.04.83 0 1.63-.23 2.41-.68.77-.45 1.16-.99 1.16-1.61 0-.07-.02-.2-.07-.39l-6.68-21.79c-.19-.59-.63-1.05-1.31-1.37-.68-.33-1.46-.49-2.34-.49s-1.66.16-2.34.49c-.67.32-1.11.78-1.3 1.37l-6.64 21.79c-.05.19-.08.32-.08.39zm7.76-7.5 2.6-9.57 2.61 9.57zm18.64 8.11c0 .45.22.85.66 1.18s1.03.5 1.77.5h7.93c2.19 0 3.94-.61 5.24-1.84 1.29-1.23 1.94-3.17 1.94-5.84v-.75c0-1.67-.31-2.92-.93-3.77-.62-.84-1.53-1.49-2.75-1.95 2.03-.88 3.04-2.75 3.04-5.6 0-4.24-2.38-6.36-7.14-6.36h-7.33c-.66 0-1.24.15-1.71.44-.48.3-.72.72-.72 1.27zm5.54-3.18v-7.14h3.57c1.91 0 2.86 1.09 2.86 3.28v.58c0 2.19-.95 3.28-2.86 3.28zm0-11.43v-4.96h3.75c.64 0 1.14.25 1.5.75s.54 1.08.54 1.75c0 .66-.18 1.24-.54 1.73s-.86.73-1.5.73zm18.47 14.58c0 .54.24.97.71 1.26.48.3 1.05.45 1.72.45h11.29c.5 0 .89-.24 1.17-.71.29-.48.43-1.05.43-1.72s-.14-1.24-.43-1.71c-.28-.48-.67-.72-1.17-.72h-8.15v-19.57c0-.55-.27-.97-.82-1.25-.55-.29-1.2-.43-1.97-.43-.76 0-1.41.14-1.96.43-.55.28-.82.7-.82 1.25zm21.15 0c0 .54.23.97.71 1.26.48.3 1.05.45 1.71.45h12.72c.55 0 .97-.24 1.25-.71.29-.48.43-1.04.43-1.68 0-.69-.15-1.28-.45-1.75-.29-.48-.7-.72-1.23-.72h-9.57v-6.07h5.36c.54 0 .96-.22 1.25-.64.28-.43.43-.92.43-1.47 0-.59-.15-1.11-.45-1.53-.3-.43-.71-.65-1.23-.65h-5.36v-6.03h9.57c.53 0 .94-.24 1.23-.72.3-.48.45-1.06.45-1.75 0-.64-.14-1.2-.43-1.68-.28-.47-.7-.71-1.25-.71h-12.72c-.66 0-1.23.15-1.71.44-.48.3-.71.72-.71 1.27zm33.54 0c0 .54.27.97.82 1.26.55.3 1.2.45 1.96.45.77 0 1.42-.15 1.97-.45.55-.29.82-.72.82-1.26v-7.72h3.54c2.64 0 4.77-.67 6.37-2.02 1.61-1.34 2.42-3.43 2.42-6.27v-.18c0-2.83-.77-4.91-2.31-6.23-1.53-1.32-3.58-1.98-6.13-1.98h-7.39c-.62 0-1.12.16-1.5.5-.38.33-.57.72-.57 1.18zm5.57-12.01v-7.53h3.54c2.14 0 3.21 1.19 3.21 3.57v.39c0 2.38-1.07 3.57-3.21 3.57zm18.33 12.01c0 .54.27.97.82 1.26.55.3 1.2.45 1.96.45.77 0 1.42-.15 1.97-.45.55-.29.82-.72.82-1.26v-8.61h2.36l4.89 9.5c.36.69.95 1.03 1.79 1.03.83 0 1.62-.31 2.37-.92.75-.62 1.13-1.28 1.13-1.97 0-.26-.06-.48-.18-.64l-4.36-7.9c2.88-1.12 4.32-3.53 4.32-7.25 0-5.09-2.93-7.64-8.78-7.64h-7.4c-.5 0-.91.16-1.23.5-.32.33-.48.72-.48 1.18zm5.57-12.9v-6.64h3.54c1.04 0 1.84.25 2.39.76.55.52.82 1.37.82 2.56s-.27 2.04-.82 2.55-1.35.77-2.39.77zm18.57 6.39c0 2.91.8 5.04 2.4 6.4 1.59 1.36 3.71 2.03 6.36 2.03 2.66 0 4.8-.67 6.39-2.03 1.6-1.36 2.39-3.49 2.39-6.4v-9.46c0-2.91-.79-5.04-2.39-6.4-1.59-1.35-3.73-2.03-6.39-2.03-2.65 0-4.77.68-6.36 2.03-1.6 1.36-2.4 3.49-2.4 6.4zm5.58 0v-9.46c0-2.38 1.06-3.57 3.18-3.57 2.14 0 3.21 1.19 3.21 3.57v9.46c0 2.39-1.07 3.58-3.21 3.58-2.12 0-3.18-1.19-3.18-3.58zm29.83 6.51c0 .54.27.97.82 1.26.54.3 1.2.45 1.96.45s1.42-.15 1.97-.45c.54-.29.82-.72.82-1.26v-13.76l3.39 6.22c.36.69.94 1.03 1.75 1.03.84 0 1.45-.34 1.86-1.03l3.43-5.86v13.4c0 .54.27.97.82 1.26.55.3 1.2.45 1.97.45.76 0 1.41-.15 1.96-.45.55-.29.82-.72.82-1.26v-21.62c0-.95-.27-1.65-.8-2.1-.54-.46-1.2-.68-1.98-.68-1.08 0-1.89.16-2.45.48s-1.19 1.09-1.88 2.3l-3.68 6.43-3.68-6.43c-.69-1.21-1.31-1.98-1.87-2.3s-1.38-.48-2.45-.48c-.78 0-1.45.22-1.98.68-.54.45-.8 1.15-.8 2.1zm27.22-.58c0 .62.38 1.16 1.16 1.61.77.45 1.57.68 2.41.68 1.02 0 1.63-.35 1.82-1.04l1.21-4.46h7.54l1.22 4.46c.19.69.79 1.04 1.82 1.04.83 0 1.64-.23 2.41-.68s1.16-.99 1.16-1.61c0-.07-.02-.2-.07-.39l-6.68-21.79c-.19-.59-.63-1.05-1.31-1.37-.67-.33-1.45-.49-2.34-.49-.88 0-1.66.16-2.33.49-.68.32-1.12.78-1.31 1.37l-6.64 21.79c-.05.19-.07.32-.07.39zm7.75-7.5 2.6-9.57 2.61 9.57zm17 7.25c0 .72.41 1.36 1.23 1.91.82.56 1.65.84 2.49.84.64 0 1.08-.19 1.32-.57l5.21-8.86 5.22 8.86c.21.38.65.57 1.32.57.83 0 1.66-.28 2.48-.84.82-.55 1.24-1.19 1.24-1.91 0-.31-.11-.64-.33-1l-6.18-9.53 5.93-9.51c.24-.38.36-.75.36-1.1 0-.72-.39-1.34-1.18-1.86-.78-.53-1.59-.79-2.43-.79-.78 0-1.34.31-1.68.93l-4.75 8.29-4.75-8.29c-.33-.62-.89-.93-1.68-.93-.83 0-1.64.26-2.43.79-.78.52-1.17 1.14-1.17 1.86 0 .35.11.72.35 1.1l5.93 9.51-6.18 9.53c-.21.36-.32.69-.32 1z" fill="#333" transform="matrix(.64935065 0 0 .64935065 179.27985017928 22.12302210005)"/><path d="m-60.68-.69c0 .22.11.39.33.51s.48.18.79.18c.3 0 .56-.06.78-.18s.33-.29.33-.51v-3.68h2.16c.22 0 .39-.09.5-.26s.17-.37.17-.59c0-.23-.06-.44-.18-.61s-.28-.26-.49-.26h-2.16v-2.41h3.7c.21 0 .38-.1.5-.29.11-.19.17-.42.17-.7 0-.25-.05-.48-.17-.67-.11-.19-.28-.29-.5-.29h-4.96c-.26 0-.49.06-.68.18s-.29.29-.29.51zm7.36 0c0 .19.11.34.32.48s.47.21.78.21.57-.07.79-.21c.22-.15.33-.3.33-.48v-9.33c0-.2-.11-.36-.33-.48-.21-.13-.47-.19-.79-.19s-.59.06-.79.19c-.21.12-.31.28-.31.48zm3.56-8.45c0 .27.11.51.34.72.23.2.51.3.83.3s.59-.1.82-.3c.22-.21.34-.45.34-.72 0-.28-.12-.52-.34-.72-.23-.2-.5-.3-.82-.3s-.6.1-.83.3-.34.44-.34.72zm.07 8.45c0 .19.11.34.32.48.2.14.47.21.78.21s.57-.07.79-.21c.22-.15.33-.3.33-.48v-5.44c0-.2-.11-.36-.33-.49-.21-.12-.47-.18-.79-.18s-.59.06-.79.18c-.21.13-.31.29-.31.49zm3.5 3.1c0 .19.11.35.32.48.21.14.46.21.77.21.3 0 .57-.07.79-.21.22-.15.34-.3.34-.48v-3.41c.14.31.38.58.73.81.35.22.72.33 1.12.33.66 0 1.24-.3 1.74-.91s.75-1.32.75-2.12v-1c0-.83-.25-1.53-.74-2.12-.5-.58-1.1-.88-1.82-.88-.42 0-.8.11-1.14.32s-.61.46-.79.77v-.33c0-.2-.09-.36-.28-.49-.19-.12-.44-.18-.73-.18-.3 0-.55.06-.75.18-.21.13-.31.29-.31.49zm2.22-5.11v-1.19c0-.32.1-.58.31-.78.21-.19.45-.29.73-.29.29 0 .55.11.76.33.22.22.33.47.33.74v1c0 .29-.11.54-.33.77-.21.22-.46.33-.73.33-.29 0-.54-.11-.75-.34-.22-.23-.32-.42-.32-.57zm5.18-.73c0 .27.06.48.19.65.12.17.28.25.48.25h3.72c.18 0 .34-.08.48-.26.14-.17.21-.38.21-.64 0-.25-.07-.46-.21-.64s-.3-.27-.48-.27h-3.72c-.2 0-.36.08-.48.26-.13.18-.19.39-.19.65zm6.15 2.74c0 .19.1.34.31.48s.47.21.79.21c.29 0 .55-.07.78-.21.22-.15.33-.3.33-.48v-3.2c0-.32.1-.58.29-.78.2-.19.42-.29.67-.29.28 0 .52.11.72.33.21.22.31.47.31.74v3.2c0 .21.11.38.33.5.23.13.48.19.77.19.3 0 .57-.06.78-.18.22-.12.33-.29.33-.51v-3.2c0-.82-.24-1.52-.72-2.11s-1.05-.89-1.71-.89c-.44 0-.84.11-1.18.32-.33.21-.58.46-.73.77v-.33c0-.2-.1-.36-.29-.49-.19-.12-.42-.18-.68-.18-.33 0-.59.06-.8.18-.2.13-.3.29-.3.49zm7.43-2.74c0 .27.06.48.18.65.13.17.29.25.49.25h3.71c.19 0 .34-.08.48-.26.14-.17.21-.38.21-.64 0-.25-.07-.46-.21-.64s-.29-.27-.48-.27h-3.71c-.2 0-.36.08-.49.26-.12.18-.18.39-.18.65zm6.27 2.74c0 .22.1.39.29.51s.42.18.68.18h4.52c.2 0 .35-.1.47-.29.11-.19.17-.41.17-.68s-.06-.5-.17-.69c-.12-.19-.27-.28-.47-.28h-3.26v-7.83c0-.22-.11-.39-.33-.5-.22-.12-.48-.18-.79-.18-.3 0-.56.06-.78.18-.22.11-.33.28-.33.5zm6.52-1.07c0 .62.17 1.09.52 1.42.35.32.78.48 1.3.48.8 0 1.52-.38 2.18-1.14v.31c0 .19.09.36.28.49s.43.2.7.2c.32 0 .58-.07.78-.2.21-.13.31-.3.31-.49v-3.4c0-.8-.27-1.46-.81-2-.54-.53-1.35-.8-2.45-.8-.57 0-1.12.11-1.65.34-.53.22-.79.49-.79.81 0 .28.06.54.2.76.13.22.31.34.54.34.07 0 .25-.08.54-.24.3-.16.67-.24 1.13-.24.37 0 .65.11.82.32s.25.46.25.74v.14h-.51c-1.08 0-1.9.17-2.48.49s-.86.88-.86 1.67zm2.22-.31c0-.22.09-.39.25-.51s.34-.19.55-.22c.2-.03.46-.04.78-.04h.05v.05c0 .35-.12.65-.35.92-.24.26-.48.4-.72.4-.37 0-.56-.2-.56-.6zm5.01-.79c0 .8.32 1.5.96 2.1s1.41.9 2.29.9 1.64-.3 2.28-.9c.65-.6.97-1.3.97-2.1v-3.27c0-.18-.11-.34-.32-.47s-.47-.2-.78-.2c-.3 0-.56.07-.78.2-.23.13-.34.29-.34.47v3.27c0 .28-.1.53-.3.75-.21.21-.45.32-.73.32-.27 0-.52-.11-.72-.32-.21-.22-.32-.47-.32-.75v-3.26c0-.17-.11-.32-.34-.47-.22-.14-.47-.21-.76-.21-.3 0-.57.07-.79.21-.21.15-.32.3-.32.47zm7.24 3.89c0 .64.32 1.14.96 1.51s1.4.56 2.3.56c.89 0 1.66-.19 2.28-.58.63-.38.95-.97.95-1.75 0-.5-.15-.91-.44-1.23-.29-.31-.64-.52-1.06-.63-.41-.11-.82-.2-1.24-.25-.41-.06-.77-.12-1.06-.19s-.43-.17-.43-.3c0-.06.02-.12.06-.18.25.05.54.08.85.08.87 0 1.58-.23 2.14-.68s.83-1.02.83-1.71v-.21c0-.55-.18-1.02-.54-1.41.08-.08.19-.18.33-.29l.29-.23c.15-.13.22-.27.22-.43 0-.14-.07-.29-.23-.43-.16-.15-.36-.22-.61-.22-.13 0-.26.06-.38.2-.13.14-.27.41-.43.8-.48-.23-1.02-.35-1.62-.35-.87 0-1.58.22-2.12.66s-.81 1.01-.81 1.7v.21c0 .76.31 1.36.93 1.82-.48.35-.73.74-.73 1.16 0 .39.17.68.52.88-.64.36-.96.86-.96 1.49zm2.09-.23c0-.37.19-.66.57-.86.26.03.48.06.65.1.17.03.34.08.51.14.18.06.31.14.4.25.08.1.12.24.12.4 0 .26-.11.47-.33.63-.23.16-.49.24-.79.24-.31 0-.57-.08-.8-.24-.22-.16-.33-.38-.33-.66zm.3-5.13v-.2c0-.3.07-.56.21-.76.14-.21.34-.31.59-.31s.45.1.6.31c.14.2.21.46.21.76v.21c0 .33-.07.59-.21.8-.15.2-.34.31-.59.31-.26 0-.46-.11-.6-.32s-.21-.48-.21-.8zm4.93 3.64c0 .19.1.34.31.48s.47.21.79.21c.29 0 .55-.07.78-.21.22-.15.33-.3.33-.48v-3.2c0-.32.1-.58.29-.78.2-.19.42-.29.67-.29.27 0 .52.11.72.33s.31.47.31.74v3.2c0 .21.11.38.33.5.23.13.48.19.77.19.3 0 .56-.06.78-.18s.33-.29.33-.51v-3.2c0-.82-.24-1.52-.72-2.11s-1.05-.89-1.71-.89c-.42 0-.78.11-1.09.32s-.54.46-.68.77v-4.22c0-.2-.11-.36-.33-.48-.22-.13-.48-.19-.78-.19-.33 0-.59.06-.8.19-.2.12-.3.28-.3.48zm10.61 0c0 .22.1.39.29.51s.42.18.68.18h5.09c.22 0 .39-.1.5-.29.12-.19.17-.41.17-.67 0-.27-.06-.51-.18-.7-.11-.19-.28-.28-.49-.28h-3.83v-2.43h2.15c.21 0 .38-.09.5-.26.11-.17.17-.37.17-.59 0-.23-.06-.44-.18-.61s-.29-.26-.49-.26h-2.15v-2.41h3.83c.21 0 .38-.1.49-.29.12-.19.18-.42.18-.7 0-.25-.05-.48-.17-.67-.11-.19-.28-.29-.5-.29h-5.09c-.26 0-.49.06-.68.18s-.29.29-.29.51zm7.18-2.2c0 .8.25 1.51.75 2.12.5.61 1.07.91 1.73.91.44 0 .85-.11 1.22-.33.37-.23.63-.5.78-.81v.31c0 .18.1.33.3.48.19.14.42.21.69.21.3 0 .56-.07.77-.21s.31-.29.31-.48v-9.33c0-.2-.1-.36-.3-.48-.21-.13-.47-.19-.78-.19-.33 0-.59.06-.81.19-.21.12-.32.28-.32.48v4.22c-.16-.31-.4-.56-.72-.77s-.69-.32-1.09-.32c-.7 0-1.3.3-1.79.89-.5.59-.74 1.29-.74 2.11zm2.21 0v-1c0-.27.1-.52.31-.74.2-.22.45-.33.73-.33s.53.1.75.3c.23.2.34.46.34.77v1.19c0 .15-.11.34-.34.57s-.48.34-.76.34-.52-.11-.72-.33c-.21-.23-.31-.48-.31-.77zm5.57-6.25c0 .27.12.51.35.72.22.2.5.3.82.3s.59-.1.82-.3c.23-.21.34-.45.34-.72 0-.28-.11-.52-.34-.72s-.5-.3-.82-.3-.6.1-.82.3c-.23.2-.35.44-.35.72zm.07 8.45c0 .19.11.34.32.48s.47.21.78.21.57-.07.79-.21c.22-.15.33-.3.33-.48v-5.44c0-.2-.11-.36-.32-.49-.22-.12-.48-.18-.8-.18s-.58.06-.79.18c-.2.13-.31.29-.31.49zm3.46-1.72c0 1.61.94 2.41 2.8 2.41h.62c.3 0 .54-.09.7-.27s.24-.4.24-.66c0-.25-.08-.46-.24-.65-.16-.18-.4-.28-.7-.28h-.62c-.22 0-.37-.04-.45-.12-.09-.08-.13-.23-.13-.43v-2.82h1.61c.17 0 .31-.08.4-.23.1-.15.15-.34.15-.56 0-.21-.05-.39-.15-.55-.09-.15-.23-.23-.4-.23h-1.61v-2.29c0-.19-.11-.35-.34-.48-.22-.12-.48-.19-.78-.19-.27 0-.53.07-.75.19-.23.13-.35.29-.35.48zm5.16-6.73c0 .27.12.51.34.72.23.2.51.3.83.3s.59-.1.82-.3c.23-.21.34-.45.34-.72 0-.28-.11-.52-.34-.72s-.5-.3-.82-.3-.6.1-.83.3c-.22.2-.34.44-.34.72zm.07 8.45c0 .19.11.34.32.48s.47.21.78.21.57-.07.79-.21c.22-.15.33-.3.33-.48v-5.44c0-.2-.11-.36-.32-.49-.22-.12-.48-.18-.8-.18s-.59.06-.79.18c-.21.13-.31.29-.31.49zm3.23-2.2c0 .8.33 1.51.97 2.12.65.61 1.41.91 2.28.91.86 0 1.62-.3 2.27-.91.66-.61.98-1.32.98-2.12v-1c0-.82-.32-1.52-.97-2.11s-1.41-.89-2.28-.89c-.89 0-1.65.3-2.29.9-.64.59-.96 1.29-.96 2.1zm2.22 0v-1c0-.27.1-.52.3-.74.21-.22.45-.33.73-.33.27 0 .51.11.72.33s.32.47.32.74v1c0 .29-.1.54-.31.77-.2.22-.45.33-.73.33-.29 0-.53-.11-.73-.33-.2-.23-.3-.48-.3-.77zm5.31 2.2c0 .19.11.34.32.48s.47.21.78.21c.3 0 .56-.07.78-.21.22-.15.34-.3.34-.48v-3.2c0-.32.09-.58.29-.78.19-.19.42-.29.66-.29.28 0 .52.11.73.33.2.22.3.47.3.74v3.2c0 .21.11.38.34.5.22.13.48.19.76.19.31 0 .57-.06.79-.18s.33-.29.33-.51v-3.2c0-.82-.24-1.52-.72-2.11-.49-.59-1.05-.89-1.71-.89-.45 0-.84.11-1.18.32s-.58.46-.74.77v-.33c0-.2-.09-.36-.28-.49-.19-.12-.42-.18-.69-.18-.32 0-.59.06-.79.18-.21.13-.31.29-.31.49z" fill="#9a197e" transform="matrix(.64935065 0 0 .64935065 97.74511178606 35.88885977615)"/></g></svg>